<svg width="114" height="23" viewBox="0 0 114 23" fill="none" xmlns="http://www.w3.org/2000/svg">
<path d="M19.692 9.87409C19.5405 9.85729 19.3872 9.87555 19.2439 9.92751C19.1005 9.97947 18.971 10.0638 18.8652 10.1738C18.5122 10.4851 18.1795 10.8188 17.8692 11.1728C17.8431 11.2111 17.8291 11.2564 17.8291 11.3027C17.8291 11.3491 17.8431 11.3943 17.8692 11.4326C18.168 11.9521 18.7258 12.1118 19.5027 12.1118H25.479C25.6321 12.1302 25.7873 12.1127 25.9325 12.0607C26.0777 12.0087 26.2088 11.9237 26.3157 11.8122C26.6716 11.5041 27.0045 11.1702 27.3117 10.8132C27.3384 10.7771 27.3528 10.7333 27.3528 10.6883C27.3528 10.6434 27.3384 10.5996 27.3117 10.5635C27.1267 10.3094 26.8753 10.1115 26.5853 9.99165C26.2953 9.87179 25.978 9.83457 25.6682 9.88409L19.692 9.87409Z" fill="#FA2828"/>
<path d="M35.061 8.67501C34.934 8.58866 34.7888 8.53288 34.6368 8.51208C34.4847 8.49129 34.3299 8.50604 34.1845 8.55513C33.7367 8.68322 33.2975 8.84003 32.8697 9.02463C32.7701 9.02463 32.7602 9.16448 32.7701 9.26438C32.7701 9.86378 33.2183 10.2633 33.9156 10.603L39.2345 13.3202C39.3615 13.4066 39.5067 13.4624 39.6587 13.4832C39.8108 13.504 39.9655 13.4892 40.111 13.4401C40.5588 13.312 40.998 13.1552 41.4258 12.9706C41.4656 12.9465 41.4967 12.9102 41.5146 12.8671C41.5326 12.824 41.5363 12.7763 41.5253 12.7309C41.5253 12.1315 41.0672 11.7319 40.3699 11.3922L35.061 8.67501Z" fill="#494949"/>
<path d="M30.6186 5.54854C30.5826 5.52178 30.539 5.50732 30.4941 5.50732C30.4493 5.50732 30.4056 5.52178 30.3696 5.54854C30.0191 5.83051 29.6864 6.13404 29.3736 6.45754C29.2726 6.55834 29.1959 6.68104 29.1493 6.81607C29.1027 6.9511 29.0874 7.09494 29.1047 7.23679V14.9091C29.1047 15.6484 29.2441 16.1678 29.7322 16.4575C29.7672 16.482 29.809 16.4952 29.8517 16.4952C29.8944 16.4952 29.9361 16.482 29.9712 16.4575C30.3264 16.181 30.6594 15.8772 30.9673 15.5485C31.0679 15.445 31.145 15.3209 31.1931 15.1846C31.2413 15.0484 31.2594 14.9032 31.2461 14.7593V7.09691C31.2919 6.80598 31.2577 6.5081 31.1471 6.23523C31.0365 5.96237 30.8538 5.72494 30.6186 5.54854Z" fill="#494949"/>
<path d="M44.5236 5.54854C44.4875 5.52178 44.4439 5.50732 44.399 5.50732C44.3542 5.50732 44.3106 5.52178 44.2745 5.54854C43.924 5.83051 43.5913 6.13404 43.2785 6.45754C43.1775 6.55834 43.1008 6.68104 43.0542 6.81607C43.0076 6.9511 42.9923 7.09494 43.0096 7.23679V14.9091C43.0096 15.6484 43.149 16.1678 43.6371 16.4575C43.6742 16.4816 43.7174 16.4945 43.7616 16.4945C43.8058 16.4945 43.849 16.4816 43.8861 16.4575C44.2218 16.1765 44.5379 15.8728 44.8323 15.5485C44.933 15.445 45.01 15.3209 45.0582 15.1846C45.1063 15.0484 45.1244 14.9032 45.1112 14.7593V7.09691C45.1511 6.35766 45.0116 5.83825 44.5236 5.54854Z" fill="#494949"/>
<path d="M5.98628 8.67501C5.85926 8.58866 5.71406 8.53288 5.56202 8.51208C5.40998 8.49129 5.2552 8.50604 5.10976 8.55513C4.66192 8.68322 4.22277 8.84003 3.79499 9.02463C3.69539 9.02463 3.68542 9.16448 3.68542 9.26438C3.68542 9.86378 4.14361 10.2633 4.84084 10.603L10.1597 13.3202C10.2867 13.4066 10.4319 13.4624 10.584 13.4832C10.736 13.504 10.8908 13.4892 11.0362 13.4401C11.4841 13.312 11.9232 13.1552 12.351 12.9706C12.3908 12.9465 12.422 12.9102 12.4399 12.8671C12.4578 12.824 12.4616 12.7763 12.4506 12.7309C12.4506 12.1315 11.9924 11.7319 11.2952 11.3922L5.98628 8.67501Z" fill="#494949"/>
<path d="M1.5443 5.54854C1.50827 5.52178 1.46462 5.50732 1.41979 5.50732C1.37496 5.50732 1.33131 5.52178 1.29528 5.54854C0.942423 5.82777 0.609587 6.13146 0.299242 6.45754C0.199923 6.55988 0.123646 6.68238 0.0755362 6.8168C0.0274263 6.95122 0.00861003 7.09446 0.0203584 7.23679V14.9091C-0.0266252 15.2011 0.00808599 15.5004 0.12063 15.7737C0.233174 16.0471 0.419128 16.2838 0.657818 16.4575C0.692891 16.482 0.734615 16.4952 0.777353 16.4952C0.820092 16.4952 0.8618 16.482 0.896874 16.4575C1.25206 16.181 1.58509 15.8772 1.89292 15.5485C1.99357 15.445 2.07063 15.3209 2.11878 15.1846C2.16693 15.0484 2.18502 14.9032 2.17181 14.7593V7.09691C2.21761 6.80598 2.18337 6.5081 2.07279 6.23523C1.96221 5.96237 1.77948 5.72494 1.5443 5.54854Z" fill="#494949"/>
<path d="M15.4487 5.54854C15.4127 5.52178 15.3691 5.50732 15.3242 5.50732C15.2794 5.50732 15.2357 5.52178 15.1997 5.54854C14.8492 5.83051 14.5165 6.13404 14.2037 6.45754C14.1027 6.55834 14.026 6.68104 13.9794 6.81607C13.9328 6.9511 13.9175 7.09494 13.9347 7.23679V14.9091C13.9347 15.6484 14.0742 16.1678 14.5622 16.4575C14.5973 16.482 14.639 16.4952 14.6818 16.4952C14.7245 16.4952 14.7662 16.482 14.8013 16.4575C15.1565 16.181 15.4895 15.8772 15.7973 15.5485C15.898 15.445 15.9751 15.3209 16.0232 15.1846C16.0714 15.0484 16.0895 14.9032 16.0762 14.7593V7.09691C16.122 6.80598 16.0878 6.5081 15.9772 6.23523C15.8666 5.96237 15.6839 5.72494 15.4487 5.54854Z" fill="#494949"/>
<path d="M112.872 3.6203C112.095 2.423 110.977 1.48698 109.664 0.933057C108.088 0.277064 106.391 -0.03951 104.684 0.00393687H95.67V21.9819H99.7339V3.47043H104.495C105.939 3.3624 107.375 3.76929 108.549 4.6193C108.98 5.0359 109.323 5.53556 109.558 6.08828C109.792 6.641 109.913 7.2354 109.913 7.83604C109.913 8.43668 109.792 9.03119 109.558 9.58392C109.323 10.1366 108.98 10.6363 108.549 11.0529C107.375 11.9029 105.939 12.3097 104.495 12.2016H100.959V15.6583H104.674C106.387 15.6898 108.086 15.349 109.655 14.6593C110.965 14.0917 112.08 13.1502 112.862 11.9519C113.642 10.7097 114.037 9.26357 113.997 7.79616C114.035 6.324 113.644 4.87263 112.872 3.6203Z" fill="black"/>
<path d="M78.8869 1.37217C77.214 2.23799 75.8293 3.57466 74.9028 5.21829C73.9739 7.01116 73.4889 9.00202 73.4889 11.0225C73.4889 13.043 73.9739 15.0338 74.9028 16.8266C75.8244 18.4691 77.2109 19.8006 78.8869 20.6529C80.9349 21.6279 83.189 22.0873 85.4539 21.9916C87.7189 21.8959 89.9264 21.2477 91.8853 20.1034V16.477C91.0309 17.1347 90.0709 17.6415 89.0466 17.9755C87.7545 18.3625 86.4107 18.5478 85.0624 18.525C83.6795 18.5488 82.3118 18.2333 81.0782 17.6059C79.9383 17.0205 78.9933 16.1144 78.359 14.9985C77.7142 13.7658 77.3774 12.3946 77.3774 11.0025C77.3774 9.61047 77.7142 8.23923 78.359 7.00653C78.9828 5.88952 79.9219 4.98239 81.0583 4.39916C82.3166 3.76128 83.7127 3.4455 85.1222 3.48004C87.5666 3.36926 89.9729 4.11836 91.9251 5.59791V2.01155C89.9823 0.829492 87.7763 0.152018 85.5067 0.040382C83.2371 -0.0712542 80.9756 0.386457 78.9268 1.37217H78.8869Z" fill="black"/>
<path d="M60.0815 0.00390625H56.1073V21.9818H60.0815V0.00390625Z" fill="black"/>
<path d="M74.4846 0.00390625H69.7633L61.3169 9.40447V12.1317L70.3311 21.9818H75.0523L64.803 10.7831L74.4846 0.00390625Z" fill="black"/>
</svg>
